# This file uses centimeters as units for non-parametric coordinates.

mtllib wooden_shoulder.mtl
g default
v -1.477198 4.415739 0.000000
v -1.417246 4.354486 0.000000
v -1.385298 4.274953 0.000000
v -1.386219 4.189248 0.000000
v -1.419865 4.110419 0.000000
v -1.481119 4.050467 0.000000
v -1.560651 4.018520 0.000000
v -1.584746 4.023582 -0.059442
v -1.525642 4.059821 -0.109834
v -1.478037 4.122641 -0.143504
v -1.449183 4.202477 -0.155328
v -1.443470 4.287174 -0.143504
v -1.461769 4.363840 -0.109834
v -1.501294 4.420802 -0.059442
v -1.556027 4.449387 0.000000
v -1.559465 4.433023 -0.084063
v -1.569255 4.386422 -0.155328
v -1.583908 4.316680 -0.202946
v -1.601192 4.234413 -0.219667
v -1.618476 4.152146 -0.202946
v -1.633128 4.082404 -0.155328
v -1.642919 4.035804 -0.084063
v -1.701091 4.048026 -0.059442
v -1.740615 4.104986 -0.109834
v -1.758914 4.181651 -0.143504
v -1.753201 4.266349 -0.155328
v -1.724346 4.346185 -0.143504
v -1.676742 4.409005 -0.109834
v -1.617637 4.445245 -0.059442
v -1.641732 4.450307 0.000000
v -1.721264 4.418359 0.000000
v -1.782518 4.358407 0.000000
v -1.816165 4.279578 0.000000
v -1.817086 4.193873 0.000000
v -1.785137 4.114340 0.000000
v -1.725186 4.053088 0.000000
v -1.646356 4.019440 0.000000
v -1.701091 4.048026 0.059441
v -1.740615 4.104986 0.109833
v -1.758914 4.181651 0.143504
v -1.753201 4.266349 0.155328
v -1.724346 4.346185 0.143504
v -1.676742 4.409005 0.109833
v -1.617637 4.445245 0.059441
v -1.559465 4.433023 0.084063
v -1.569255 4.386422 0.155328
v -1.583908 4.316680 0.202945
v -1.601192 4.234413 0.219666
v -1.618476 4.152146 0.202945
v -1.633128 4.082404 0.155328
v -1.642919 4.035804 0.084063
v -1.584746 4.023582 0.059441
v -1.525642 4.059821 0.109833
v -1.478037 4.122641 0.143504
v -1.449183 4.202477 0.155328
v -1.443470 4.287174 0.143504
v -1.461769 4.363840 0.109833
v -1.501294 4.420802 0.059441
vn -0.205606 -0.978635 0.000000
vn 0.145045 -0.945801 -0.290557
vn 0.249680 -0.967786 0.032422
vn 0.590959 -0.806127 0.030447
vn 0.398751 -0.765742 -0.504616
vn 0.841367 -0.540165 0.017950
vn 0.585942 -0.486507 -0.648061
vn 0.978635 -0.205607 -0.000000
vn 0.691998 -0.145387 -0.707108
vn 0.987609 0.155906 -0.017951
vn 0.707339 0.214795 -0.673450
vn 0.865403 0.500151 -0.030446
vn 0.631055 0.549382 -0.547676
vn 0.468526 0.816891 -0.336411
vn 0.618039 0.785479 -0.032425
vn 0.205606 0.978635 0.000000
vn 0.152447 0.883300 -0.443330
vn 0.107423 0.659398 -0.744080
vn 0.055554 0.351730 -0.934452
vn 0.000001 -0.000000 -1.000000
vn -0.055553 -0.351731 -0.934452
vn -0.107422 -0.659401 -0.744077
vn -0.152449 -0.883301 -0.443327
vn -0.468523 -0.816895 -0.336406
vn -0.631055 -0.549384 -0.547674
vn -0.707337 -0.214794 -0.673452
vn -0.691998 0.145385 -0.707108
vn -0.585942 0.486506 -0.648061
vn -0.398753 0.765739 -0.504619
vn -0.145048 0.945799 -0.290561
vn -0.249687 0.967784 0.032422
vn -0.590962 0.806124 0.030448
vn -0.841365 0.540169 0.017950
vn -0.978635 0.205606 -0.000002
vn -0.987608 -0.155911 -0.017951
vn -0.865402 -0.500153 -0.030448
vn -0.618034 -0.785483 -0.032422
vn -0.513396 -0.807467 0.290556
vn -0.673194 -0.540532 0.504613
vn -0.732184 -0.209575 0.648063
vn -0.691997 0.145385 0.707109
vn -0.561091 0.481286 0.673454
vn -0.356613 0.756888 0.547675
vn -0.100175 0.936374 0.336407
vn 0.215904 0.869966 0.443333
vn 0.167016 0.646874 0.744083
vn 0.090687 0.344347 0.934452
vn -0.000001 0.000000 1.000000
vn -0.090688 -0.344347 0.934452
vn -0.167018 -0.646876 0.744081
vn -0.215903 -0.869969 0.443329
vn 0.100172 -0.936376 0.336402
vn 0.356609 -0.756890 0.547674
vn 0.561091 -0.481288 0.673453
vn 0.691996 -0.145384 0.707110
vn 0.732184 0.209576 0.648062
vn 0.673194 0.540531 0.504615
vn 0.513400 0.807463 0.290559
s 1
g polySurface14 Mannaquin:Mesh
usemtl Mannaquin:Drevo
f 37//1 8//2 7//3
f 7//3 8//2 6//4
f 6//4 8//2 9//5
f 6//4 9//5 5//6
f 5//6 9//5 10//7
f 5//6 10//7 4//8
f 4//8 10//7 11//9
f 4//8 11//9 3//10
f 3//10 11//9 12//11
f 3//10 12//11 2//12
f 2//12 12//11 13//13
f 14//14 1//15 13//13
f 13//13 1//15 2//12
f 1//15 14//14 15//16
f 14//14 16//17 15//16
f 13//13 17//18 14//14
f 14//14 17//18 16//17
f 12//11 18//19 13//13
f 13//13 18//19 17//18
f 11//9 19//20 12//11
f 12//11 19//20 18//19
f 10//7 20//21 11//9
f 11//9 20//21 19//20
f 9//5 21//22 10//7
f 10//7 21//22 20//21
f 8//2 22//23 9//5
f 9//5 22//23 21//22
f 37//1 22//23 8//2
f 37//1 23//24 22//23
f 22//23 23//24 21//22
f 21//22 23//24 24//25
f 21//22 24//25 20//21
f 20//21 24//25 25//26
f 20//21 25//26 19//20
f 19//20 25//26 26//27
f 19//20 26//27 18//19
f 18//19 26//27 27//28
f 18//19 27//28 17//18
f 17//18 27//28 28//29
f 17//18 28//29 16//17
f 16//17 28//29 29//30
f 16//17 29//30 15//16
f 29//30 30//31 15//16
f 28//29 31//32 29//30
f 29//30 31//32 30//31
f 27//28 32//33 28//29
f 28//29 32//33 31//32
f 26//27 33//34 27//28
f 27//28 33//34 32//33
f 25//26 34//35 26//27
f 26//27 34//35 33//34
f 24//25 35//36 25//26
f 25//26 35//36 34//35
f 23//24 36//37 24//25
f 24//25 36//37 35//36
f 37//1 36//37 23//24
f 37//1 38//38 36//37
f 36//37 38//38 35//36
f 35//36 38//38 39//39
f 35//36 39//39 34//35
f 34//35 39//39 40//40
f 34//35 40//40 33//34
f 33//34 40//40 41//41
f 33//34 41//41 32//33
f 32//33 41//41 42//42
f 32//33 42//42 31//32
f 31//32 42//42 43//43
f 31//32 43//43 30//31
f 30//31 43//43 44//44
f 30//31 44//44 15//16
f 44//44 45//45 15//16
f 43//43 46//46 44//44
f 44//44 46//46 45//45
f 42//42 47//47 43//43
f 43//43 47//47 46//46
f 41//41 48//48 42//42
f 42//42 48//48 47//47
f 40//40 49//49 41//41
f 41//41 49//49 48//48
f 39//39 50//50 40//40
f 40//40 50//50 49//49
f 38//38 51//51 39//39
f 39//39 51//51 50//50
f 37//1 51//51 38//38
f 37//1 52//52 51//51
f 51//51 52//52 50//50
f 50//50 52//52 53//53
f 50//50 53//53 49//49
f 49//49 53//53 54//54
f 49//49 54//54 48//48
f 48//48 54//54 55//55
f 48//48 55//55 47//47
f 47//47 55//55 56//56
f 47//47 56//56 46//46
f 46//46 56//56 57//57
f 46//46 57//57 45//45
f 45//45 57//57 58//58
f 45//45 58//58 15//16
f 58//58 1//15 15//16
f 1//15 58//58 2//12
f 2//12 58//58 57//57
f 56//56 3//10 57//57
f 57//57 3//10 2//12
f 55//55 4//8 56//56
f 56//56 4//8 3//10
f 54//54 5//6 55//55
f 55//55 5//6 4//8
f 53//53 6//4 54//54
f 54//54 6//4 5//6
f 52//52 7//3 53//53
f 53//53 7//3 6//4
f 37//1 7//3 52//52
g default
v -1.437508 4.345670 -0.135704
v -1.382498 4.334112 0.000000
v -1.437508 4.345670 0.135704
v -1.570312 4.373571 0.191914
v -1.703117 4.401473 0.135704
v -1.758126 4.413030 0.000000
v -1.703117 4.401473 -0.135704
v -1.570312 4.373571 -0.191914
v -0.889210 6.595654 -0.209677
v -0.804214 6.577797 0.000000
v -0.889209 6.595654 0.209676
v -1.094406 6.638765 0.296527
v -1.299603 6.681876 0.209676
v -1.384598 6.699733 0.000000
v -1.299602 6.681876 -0.209677
v -1.094406 6.638765 -0.296528
v -1.527450 4.577583 0.000000
v -1.142608 6.409334 0.000000
v -0.880952 5.930661 0.049161
v -0.982560 5.952008 -0.201497
v -0.982560 5.952008 0.299820
v -1.227863 6.003545 0.403646
v -1.473166 6.055082 0.299820
v -1.574774 6.076429 0.049161
v -1.473165 6.055082 -0.201497
v -1.227863 6.003545 -0.305323
vn -0.205607 -0.978635 -0.000000
vn 0.626488 -0.317238 -0.711950
vn 0.916312 -0.399643 -0.025667
vn 0.205607 0.978635 -0.000001
vn 0.942565 0.332429 -0.032595
vn 0.686712 0.343643 -0.640575
vn 0.644261 -0.364249 0.672495
vn 0.705918 0.422794 0.568264
vn -0.047022 -0.223811 0.973498
vn 0.116350 0.553796 0.824484
vn -0.736374 -0.074185 0.672495
vn -0.476089 0.671128 0.568266
vn -0.999666 0.002894 -0.025664
vn -0.729095 0.683637 -0.032592
vn -0.701183 -0.038300 -0.711951
vn -0.490361 0.590941 -0.640574
vn -0.036638 -0.174390 -0.983995
vn 0.097133 0.462329 -0.881372
vn 0.683085 -0.189434 -0.705344
vn 0.968366 -0.249490 0.004619
vn 0.680841 -0.189664 0.707448
vn -0.009395 -0.044718 0.998956
vn -0.699602 0.100360 0.707450
vn -0.986894 0.161301 0.004614
vn -0.701563 0.101474 -0.705345
vn -0.009270 -0.044121 -0.998983
s 1
g Mannaquin:Mesh polySurface15
usemtl Mannaquin:Drevo
f 75//59 59//60 60//61
f 76//62 68//63 67//64
f 75//59 60//61 61//65
f 76//62 69//66 68//63
f 75//59 61//65 62//67
f 76//62 70//68 69//66
f 75//59 62//67 63//69
f 76//62 71//70 70//68
f 75//59 63//69 64//71
f 76//62 72//72 71//70
f 75//59 64//71 65//73
f 76//62 73//74 72//72
f 75//59 65//73 66//75
f 76//62 74//76 73//74
f 66//75 59//60 75//59
f 76//62 67//64 74//76
f 59//60 78//77 60//61
f 60//61 78//77 77//78
f 67//64 68//63 78//77
f 78//77 68//63 77//78
f 60//61 77//78 61//65
f 61//65 77//78 79//79
f 68//63 69//66 77//78
f 77//78 69//66 79//79
f 61//65 79//79 62//67
f 62//67 79//79 80//80
f 69//66 70//68 79//79
f 79//79 70//68 80//80
f 80//80 81//81 62//67
f 62//67 81//81 63//69
f 80//80 70//68 81//81
f 81//81 70//68 71//70
f 81//81 82//82 63//69
f 63//69 82//82 64//71
f 81//81 71//70 82//82
f 82//82 71//70 72//72
f 82//82 83//83 64//71
f 64//71 83//83 65//73
f 82//82 72//72 83//83
f 83//83 72//72 73//74
f 83//83 84//84 65//73
f 65//73 84//84 66//75
f 83//83 73//74 84//84
f 84//84 73//74 74//76
f 78//77 84//84 67//64
f 67//64 84//84 74//76
f 78//77 59//60 84//84
f 84//84 59//60 66//75
