# This file uses centimeters as units for non-parametric coordinates.

mtllib wooden_forearm.mtl
g default
v -1.498240 1.756262 -0.121250
v -1.448016 1.756022 0.000000
v -1.498240 1.756262 0.121250
v -1.619488 1.756842 0.171473
v -1.740737 1.757421 0.121250
v -1.790959 1.757662 0.000000
v -1.740737 1.757421 -0.121250
v -1.619488 1.756842 -0.171474
v -1.464504 4.119339 -0.143684
v -1.404990 4.119055 0.000000
v -1.464504 4.119339 0.143683
v -1.608187 4.120026 0.203199
v -1.751868 4.120714 0.143683
v -1.811384 4.120998 0.000000
v -1.751868 4.120714 -0.143684
v -1.608187 4.120026 -0.203199
v -1.618470 1.969679 0.000000
v -1.609331 3.880670 0.000000
v -1.343695 3.456047 0.037121
v -1.422091 3.456422 -0.152146
v -1.422091 3.456422 0.226388
v -1.611356 3.457327 0.304784
v -1.800620 3.458232 0.226388
v -1.879016 3.458607 0.037121
v -1.800620 3.458232 -0.152146
v -1.611356 3.457327 -0.230543
vn -0.004783 -0.999989 0.000000
vn 0.690201 -0.139748 -0.709996
vn 0.987432 -0.157325 -0.015092
vn 0.004783 0.999989 -0.000000
vn 0.903821 0.426741 -0.031626
vn 0.632120 0.390254 -0.669422
vn 0.705501 -0.172245 0.687459
vn 0.645222 0.464741 0.606386
vn -0.000830 -0.173591 0.984818
vn 0.002261 0.472754 0.881192
vn -0.707120 -0.165490 0.687455
vn -0.640746 0.470889 0.606389
vn -0.988891 -0.147873 -0.015092
vn -0.899699 0.435364 -0.031619
vn -0.691508 -0.133140 -0.709993
vn -0.628358 0.396283 -0.669422
vn -0.000632 -0.132113 -0.991235
vn 0.001866 0.390276 -0.920696
vn 0.707492 -0.017045 -0.706516
vn 0.999820 -0.018726 0.003043
vn 0.706413 -0.017832 0.707575
vn -0.000068 -0.014280 0.999898
vn -0.706552 -0.011074 0.707575
vn -0.999953 -0.009163 0.003043
vn -0.707624 -0.010278 -0.706515
vn -0.000066 -0.013727 -0.999906
s 1
g polySurface16 Mannaquin:Mesh
usemtl Mannaquin:Drevo
f 17//1 1//2 2//3
f 18//4 10//5 9//6
f 17//1 2//3 3//7
f 18//4 11//8 10//5
f 17//1 3//7 4//9
f 18//4 12//10 11//8
f 17//1 4//9 5//11
f 18//4 13//12 12//10
f 17//1 5//11 6//13
f 18//4 14//14 13//12
f 17//1 6//13 7//15
f 18//4 15//16 14//14
f 17//1 7//15 8//17
f 18//4 16//18 15//16
f 8//17 1//2 17//1
f 18//4 9//6 16//18
f 1//2 20//19 2//3
f 2//3 20//19 19//20
f 9//6 10//5 20//19
f 20//19 10//5 19//20
f 2//3 19//20 3//7
f 3//7 19//20 21//21
f 10//5 11//8 19//20
f 19//20 11//8 21//21
f 3//7 21//21 4//9
f 4//9 21//21 22//22
f 11//8 12//10 21//21
f 21//21 12//10 22//22
f 22//22 23//23 4//9
f 4//9 23//23 5//11
f 22//22 12//10 23//23
f 23//23 12//10 13//12
f 23//23 24//24 5//11
f 5//11 24//24 6//13
f 23//23 13//12 24//24
f 24//24 13//12 14//14
f 24//24 25//25 6//13
f 6//13 25//25 7//15
f 24//24 14//14 25//25
f 25//25 14//14 15//16
f 25//25 26//26 7//15
f 7//15 26//26 8//17
f 25//25 15//16 26//26
f 26//26 15//16 16//18
f 20//19 26//26 9//6
f 9//6 26//26 16//18
f 20//19 1//2 26//26
f 26//26 1//2 8//17
g default
v -1.513240 0.430092 0.000000
v -1.622836 0.500687 0.000000
v -1.715077 0.700671 0.000000
v -1.775920 0.999601 0.000000
v -1.775427 1.102775 -0.077735
v -1.714165 0.891313 -0.143634
v -1.621645 0.749772 -0.187667
v -1.511951 0.699700 -0.203130
v -1.508996 1.317466 -0.287269
v -1.618928 1.317992 -0.265402
v -1.712124 1.318437 -0.203130
v -1.774394 1.318735 -0.109933
v -1.774022 1.396468 -0.077735
v -1.711437 1.462070 -0.143634
v -1.618030 1.505657 -0.187667
v -1.508025 1.520594 -0.203130
v -1.507622 1.604731 0.000000
v -1.617659 1.583390 0.000000
v -1.711152 1.521564 0.000000
v -1.773868 1.428667 0.000000
v -1.796262 1.318840 0.000000
v -1.774022 1.396468 0.077734
v -1.711437 1.462070 0.143634
v -1.618030 1.505657 0.187667
v -1.508025 1.520593 0.203129
v -1.508996 1.317466 0.287268
v -1.618928 1.317992 0.265401
v -1.712124 1.318437 0.203129
v -1.774394 1.318735 0.109933
v -1.775427 1.102775 0.077734
v -1.714165 0.891313 0.143634
v -1.621645 0.749772 0.187667
v -1.511951 0.699700 0.203129
vn -0.999917 0.012853 0.000000
vn -0.919794 -0.083283 -0.383462
vn -0.984381 -0.176051 -0.000001
vn -0.758375 -0.170975 -0.628996
vn -0.930284 -0.366840 -0.000001
vn -0.464433 -0.275426 -0.841690
vn -0.705133 -0.709075 -0.000001
vn 0.906382 -0.422459 -0.000000
vn 0.971215 -0.087972 -0.221363
vn -0.354910 0.002341 -0.934898
vn 0.977163 -0.005013 -0.212433
vn -0.669903 0.008013 -0.742405
vn -0.914161 0.006703 -0.405296
vn -0.894372 0.294836 -0.336408
vn -0.664975 0.507802 -0.547672
vn -0.352539 0.649756 -0.673449
vn 0.929512 0.255632 -0.265819
vn -0.351165 0.936141 -0.017951
vn 0.723542 0.690239 -0.007576
vn -0.663831 0.747263 -0.030447
vn -0.893641 0.447610 -0.032421
vn -0.894153 0.340688 0.290557
vn -0.664771 0.550860 0.504612
vn -0.352412 0.675143 0.648064
vn 0.958504 0.201516 0.201645
vn -0.357054 0.011540 0.934012
vn 0.974195 -0.003789 0.225676
vn -0.669936 0.024639 0.742010
vn -0.908313 0.024730 0.417560
vn -0.919794 -0.083283 0.383461
vn -0.758374 -0.170974 0.628996
vn -0.464429 -0.275426 0.841693
vn 0.961192 -0.101206 0.256646
s 1
g Mannaquin:Mesh polySurface17
usemtl Mannaquin:Drevo
f 47//27 31//28 30//29
f 31//28 32//30 30//29
f 30//29 32//30 29//31
f 32//30 33//32 29//31
f 29//31 33//32 28//33
f 27//34 28//33 34//35
f 34//35 28//33 33//32
f 36//36 35//37 33//32
f 33//32 35//37 34//35
f 37//38 36//36 32//30
f 32//30 36//36 33//32
f 38//39 37//38 31//28
f 31//28 37//38 32//30
f 47//27 38//39 31//28
f 47//27 39//40 38//39
f 38//39 39//40 37//38
f 37//38 39//40 40//41
f 37//38 40//41 36//36
f 36//36 40//41 41//42
f 36//36 41//42 35//37
f 35//37 41//42 42//43
f 41//42 44//44 42//43
f 42//43 44//44 43//45
f 40//41 45//46 41//42
f 41//42 45//46 44//44
f 39//40 46//47 40//41
f 40//41 46//47 45//46
f 47//27 46//47 39//40
f 47//27 48//48 46//47
f 46//47 48//48 45//46
f 45//46 48//48 49//49
f 45//46 49//49 44//44
f 44//44 49//49 50//50
f 44//44 50//50 43//45
f 43//45 50//50 51//51
f 50//50 53//52 51//51
f 51//51 53//52 52//53
f 49//49 54//54 50//50
f 50//50 54//54 53//52
f 48//48 55//55 49//49
f 49//49 55//55 54//54
f 47//27 55//55 48//48
f 47//27 56//56 55//55
f 55//55 56//56 54//54
f 54//54 56//56 57//57
f 54//54 57//57 53//52
f 53//52 57//57 58//58
f 53//52 58//58 52//53
f 52//53 58//58 59//59
f 27//34 59//59 28//33
f 28//33 59//59 58//58
f 57//57 29//31 58//58
f 58//58 29//31 28//33
f 56//56 30//29 57//57
f 57//57 30//29 29//31
f 47//27 30//29 56//56
f 35//37 42//43 51//51
f 51//51 42//43 43//45
f 27//34 34//35 59//59
f 59//59 34//35 52//53
f 34//35 35//37 52//53
f 52//53 35//37 51//51
g default
v -1.547656 1.832480 0.000000
v -1.489054 1.792916 0.000000
v -1.450053 1.733939 0.000000
v -1.436591 1.664526 0.000000
v -1.450716 1.595245 0.000000
v -1.490279 1.536642 0.000000
v -1.549257 1.497642 0.000000
v -1.569569 1.497739 -0.049037
v -1.527811 1.536821 -0.090608
v -1.499753 1.595479 -0.118385
v -1.489667 1.664780 -0.128139
v -1.499089 1.734173 -0.118385
v -1.526585 1.793096 -0.090608
v -1.567967 1.832577 -0.049037
v -1.616937 1.846607 0.000000
v -1.617003 1.832811 -0.069348
v -1.617191 1.793529 -0.128139
v -1.617472 1.734739 -0.167422
v -1.617803 1.665392 -0.181216
v -1.618135 1.596045 -0.167422
v -1.618416 1.537255 -0.128139
v -1.618604 1.497973 -0.069348
v -1.667640 1.498208 -0.049037
v -1.709023 1.537688 -0.090608
v -1.736519 1.596611 -0.118385
v -1.745941 1.666005 -0.128139
v -1.735856 1.735306 -0.118385
v -1.707798 1.793962 -0.090608
v -1.666039 1.833046 -0.049037
v -1.686351 1.833143 0.000000
v -1.745328 1.794142 0.000000
v -1.784892 1.735540 0.000000
v -1.799018 1.666259 0.000000
v -1.785555 1.596846 0.000000
v -1.746554 1.537868 0.000000
v -1.687952 1.498305 0.000000
v -1.618670 1.484180 0.000000
v -1.667640 1.498208 0.049036
v -1.709023 1.537688 0.090608
v -1.736519 1.596611 0.118385
v -1.745941 1.666005 0.128139
v -1.735856 1.735306 0.118385
v -1.707798 1.793962 0.090608
v -1.666039 1.833046 0.049036
v -1.617003 1.832811 0.069348
v -1.617191 1.793529 0.128138
v -1.617472 1.734739 0.167421
v -1.617803 1.665392 0.181215
v -1.618135 1.596045 0.167421
v -1.618416 1.537255 0.128138
v -1.618604 1.497973 0.069348
v -1.569569 1.497739 0.049036
v -1.527811 1.536821 0.090607
v -1.499753 1.595479 0.118384
v -1.489666 1.664780 0.128138
v -1.499089 1.734173 0.118384
v -1.526585 1.793096 0.090608
v -1.567967 1.832577 0.049036
vn -0.004784 -0.999989 0.000000
vn 0.332112 -0.897374 -0.290554
vn 0.439034 -0.897885 0.032427
vn 0.740881 -0.670946 0.030448
vn 0.544472 -0.670008 -0.504617
vn 0.932741 -0.360099 0.017948
vn 0.671742 -0.358857 -0.648062
vn 0.999989 -0.004781 -0.000002
vn 0.707099 -0.003382 -0.707106
vn 0.936141 0.351167 -0.017950
vn 0.649758 0.352537 -0.673448
vn 0.747262 0.663832 -0.030451
vn 0.507802 0.664975 -0.547672
vn 0.294840 0.894369 -0.336412
vn 0.447616 0.893638 -0.032422
vn 0.004780 0.999989 0.000000
vn -0.028131 0.895913 -0.443338
vn -0.027257 0.667538 -0.744077
vn -0.016249 0.355723 -0.934450
vn 0.000000 0.000000 -1.000000
vn 0.016248 -0.355721 -0.934451
vn 0.027253 -0.667535 -0.744079
vn 0.028146 -0.895920 -0.443323
vn -0.294833 -0.894375 -0.336403
vn -0.507806 -0.664974 -0.547670
vn -0.649760 -0.352534 -0.673447
vn -0.707098 0.003382 -0.707108
vn -0.671741 0.358857 -0.648063
vn -0.544473 0.670011 -0.504613
vn -0.332122 0.897368 -0.290561
vn -0.439049 0.897878 0.032418
vn -0.740878 0.670950 0.030443
vn -0.932739 0.360106 0.017950
vn -0.999989 0.004782 0.000000
vn -0.936141 -0.351167 -0.017951
vn -0.747260 -0.663834 -0.030445
vn -0.447599 -0.893646 -0.032421
vn -0.340685 -0.894156 0.290549
vn -0.550856 -0.664772 0.504615
vn -0.675142 -0.352415 0.648064
vn -0.707095 0.003381 0.707110
vn -0.646356 0.358734 0.673450
vn -0.501414 0.669803 0.547675
vn -0.286267 0.897148 0.336417
vn 0.036696 0.895602 0.443341
vn 0.033642 0.667244 0.744079
vn 0.019655 0.355551 0.934450
vn 0.000004 -0.000000 1.000000
vn -0.019645 -0.355549 0.934451
vn -0.033632 -0.667243 0.744081
vn -0.036716 -0.895608 0.443327
vn 0.286268 -0.897153 0.336403
vn 0.501418 -0.669800 0.547674
vn 0.646353 -0.358737 0.673450
vn 0.707100 -0.003381 0.707106
vn 0.675143 0.352419 0.648061
vn 0.550859 0.664768 0.504617
vn 0.340693 0.894149 0.290562
s 1
g Mannaquin:Mesh polySurface18
usemtl Mannaquin:Drevo
f 96//60 67//61 66//62
f 66//62 67//61 65//63
f 65//63 67//61 68//64
f 65//63 68//64 64//65
f 64//65 68//64 69//66
f 64//65 69//66 63//67
f 63//67 69//66 70//68
f 63//67 70//68 62//69
f 62//69 70//68 71//70
f 62//69 71//70 61//71
f 61//71 71//70 72//72
f 73//73 60//74 72//72
f 72//72 60//74 61//71
f 60//74 73//73 74//75
f 73//73 75//76 74//75
f 72//72 76//77 73//73
f 73//73 76//77 75//76
f 71//70 77//78 72//72
f 72//72 77//78 76//77
f 70//68 78//79 71//70
f 71//70 78//79 77//78
f 69//66 79//80 70//68
f 70//68 79//80 78//79
f 68//64 80//81 69//66
f 69//66 80//81 79//80
f 67//61 81//82 68//64
f 68//64 81//82 80//81
f 96//60 81//82 67//61
f 96//60 82//83 81//82
f 81//82 82//83 80//81
f 80//81 82//83 83//84
f 80//81 83//84 79//80
f 79//80 83//84 84//85
f 79//80 84//85 78//79
f 78//79 84//85 85//86
f 78//79 85//86 77//78
f 77//78 85//86 86//87
f 77//78 86//87 76//77
f 76//77 86//87 87//88
f 76//77 87//88 75//76
f 75//76 87//88 88//89
f 75//76 88//89 74//75
f 88//89 89//90 74//75
f 87//88 90//91 88//89
f 88//89 90//91 89//90
f 86//87 91//92 87//88
f 87//88 91//92 90//91
f 85//86 92//93 86//87
f 86//87 92//93 91//92
f 84//85 93//94 85//86
f 85//86 93//94 92//93
f 83//84 94//95 84//85
f 84//85 94//95 93//94
f 82//83 95//96 83//84
f 83//84 95//96 94//95
f 96//60 95//96 82//83
f 96//60 97//97 95//96
f 95//96 97//97 94//95
f 94//95 97//97 98//98
f 94//95 98//98 93//94
f 93//94 98//98 99//99
f 93//94 99//99 92//93
f 92//93 99//99 100//100
f 92//93 100//100 91//92
f 91//92 100//100 101//101
f 91//92 101//101 90//91
f 90//91 101//101 102//102
f 90//91 102//102 89//90
f 89//90 102//102 103//103
f 89//90 103//103 74//75
f 103//103 104//104 74//75
f 102//102 105//105 103//103
f 103//103 105//105 104//104
f 101//101 106//106 102//102
f 102//102 106//106 105//105
f 100//100 107//107 101//101
f 101//101 107//107 106//106
f 99//99 108//108 100//100
f 100//100 108//108 107//107
f 98//98 109//109 99//99
f 99//99 109//109 108//108
f 97//97 110//110 98//98
f 98//98 110//110 109//109
f 96//60 110//110 97//97
f 96//60 111//111 110//110
f 110//110 111//111 109//109
f 109//109 111//111 112//112
f 109//109 112//112 108//108
f 108//108 112//112 113//113
f 108//108 113//113 107//107
f 107//107 113//113 114//114
f 107//107 114//114 106//106
f 106//106 114//114 115//115
f 106//106 115//115 105//105
f 105//105 115//115 116//116
f 105//105 116//116 104//104
f 104//104 116//116 117//117
f 104//104 117//117 74//75
f 117//117 60//74 74//75
f 60//74 117//117 61//71
f 61//71 117//117 116//116
f 115//115 62//69 116//116
f 116//116 62//69 61//71
f 114//114 63//67 115//115
f 115//115 63//67 62//69
f 113//113 64//65 114//114
f 114//114 64//65 63//67
f 112//112 65//63 113//113
f 113//113 65//63 64//65
f 111//111 66//62 112//112
f 112//112 66//62 65//63
f 96//60 66//62 111//111
